<svg xmlns="http://www.w3.org/2000/svg" viewBox="0 0 436.153 504.719"><path fill="#e626e6" d="M219.982.206c4.108 2.25 8.146 4.566 12.133 7.023l5.383 3.274 2.767 1.69c4.228 2.577 8.477 5.118 12.725 7.661a22583.186 22583.186 0 0 1 7.51 4.505c2.473 1.485 4.947 2.972 7.42 4.46a3966.698 3966.698 0 0 0 29.215 17.393c5.09 3.003 10.17 6.025 15.23 9.08 7.384 4.451 14.838 8.78 22.289 13.117 20.86 12.15 41.57 24.542 62.2 37.078 14.244 9.857 14.244 9.857 29.595 17.062 3.476 1.293 5.164 2.419 7.541 5.305 2.131 7.32 1.429 15.471 1.39 23.013.023 2.398.05 4.797.082 7.195.064 5.838.08 11.675.072 17.514-.006 4.748.005 9.495.028 14.243l.02 4.106.01 2.065c.06 12.882.053 25.763.027 38.645-.021 11.773.043 23.543.147 35.315.106 12.098.153 24.195.136 36.294-.008 6.789.007 13.575.086 20.363.07 6.388.062 12.77-.005 19.158-.012 2.34.004 4.68.049 7.021.308 17.217.308 17.217-3.61 21.97-3.772 3.225-7.926 5.335-12.481 7.243-2.827 1.24-5.362 2.872-7.951 4.543l-3.164 1.941c-4.058 2.5-8.094 5.036-12.133 7.567a2463.377 2463.377 0 0 1-30.614 18.883 1579.347 1579.347 0 0 0-20.011 12.367c-16.105 10.103-32.326 20.022-48.574 29.894a3583.31 3583.31 0 0 0-30.216 18.541c-8.771 5.44-17.599 10.785-26.433 16.12l-3.394 2.054-3.286 1.98a186.916 186.916 0 0 0-6.28 4.064l-2.919 1.972-2.552 1.781c-3.035 1.438-4.277 1.214-7.424.148-2.222-1.084-2.222-1.084-4.492-2.449l-2.6-1.55-2.783-1.688-2.923-1.752a2300.311 2300.311 0 0 1-9.202-5.56l-2.987-1.809a4527.596 4527.596 0 0 1-17.35-10.563 5135.726 5135.726 0 0 0-7.374-4.5c-12.364-7.536-24.67-15.164-36.976-22.795a5323.557 5323.557 0 0 0-34.09-20.978c-3.846-2.345-7.691-4.694-11.536-7.043l-2.278-1.393a6345.462 6345.462 0 0 1-19.41-11.92l-2.948-1.812a7257.526 7257.526 0 0 1-22.73-14.036 5764.37 5764.37 0 0 0-14.2-8.773l-2.885-1.778a3764.172 3764.172 0 0 0-5.484-3.375l-2.506-1.546-2.198-1.352-2.048-1.328-2.092-.983c-3.158-3.338-2.497-7.192-2.49-11.618l-.042-3.02c-.042-3.356-.055-6.711-.068-10.067-.024-2.4-.049-4.799-.075-7.199-.072-7.212-.11-14.425-.142-21.638-.015-3.398-.035-6.796-.055-10.194C.963 299.838.91 288.54.884 277.242l-.02-8.795-.005-2.208C.83 254.44.737 242.642.616 230.844c-.123-12.117-.19-24.234-.2-36.352-.007-6.802-.04-13.603-.134-20.405-.09-6.401-.101-12.8-.062-19.201a311.91 311.91 0 0 0-.072-7.042c-.354-17.273-.354-17.273 3.296-21.788 3.513-2.982 7.373-4.802 11.653-6.431 2.967-1.208 5.56-2.864 8.28-4.552l3.108-1.835a2653.163 2653.163 0 0 0 31.817-19.071 2086.68 2086.68 0 0 1 27.544-16.508c6.8-4.002 13.57-8.051 20.331-12.117 15.19-9.13 30.44-18.158 45.704-27.164a5160.917 5160.917 0 0 0 41.488-24.766l2.693-1.62c1.682-1.013 3.363-2.027 5.044-3.042a520.77 520.77 0 0 1 4.612-2.744 152.302 152.302 0 0 0 4.642-2.88c5.779-3.572 5.779-3.572 9.622-3.12zm-10.68 43.086-2.318 1.38c-2.334 1.389-4.664 2.785-6.994 4.182a4096.958 4096.958 0 0 0-12.942 7.762c-3.913 2.354-7.83 4.702-11.745 7.05l-5.137 3.083C39.99 144.854 39.99 144.854 37.376 145.942c-2.764 1.789-2.764 1.789-3.043 5.473-.04 1.52-.053 3.04-.045 4.56l-.045 2.538a659.24 659.24 0 0 0-.058 8.45c-.023 2.015-.049 4.03-.076 6.045-.065 5.484-.097 10.967-.12 16.451-.014 3.427-.035 6.853-.057 10.279-.069 10.72-.117 21.44-.136 32.16a3748.65 3748.65 0 0 1-.255 37.12c-.108 9.564-.159 19.126-.165 28.69-.005 5.714-.035 11.424-.124 17.136a686.015 686.015 0 0 0-.05 16.128c.004 1.97-.018 3.941-.067 5.91-.581 9.929-.581 9.929 3.313 18.622 3.562 2.875 7.462 4.77 11.667 6.522 2.854 1.26 5.422 2.927 8.043 4.61l2.972 1.834 3.048 1.884a4050.123 4050.123 0 0 0 28.125 17.188 2833.019 2833.019 0 0 1 27.04 16.577 2285.77 2285.77 0 0 0 18.835 11.548c11.518 6.997 22.997 14.058 34.47 21.129 2.828 1.742 5.657 3.482 8.487 5.221l5.125 3.15c2.211 1.36 4.423 2.716 6.637 4.071 4.738 2.907 9.456 5.83 14.105 8.878l2.238 1.454c1.324.864 2.64 1.74 3.946 2.631 2.553 1.661 4.271 2.665 7.359 2.595 2.936-1.13 5.534-2.484 8.258-4.067l1.787-1.038c7.073-4.157 14.003-8.55 20.947-12.917a1498.86 1498.86 0 0 1 21.266-13.107 1124.92 1124.92 0 0 0 20.687-12.813c7.88-5.01 15.836-9.881 23.82-14.723a2248.97 2248.97 0 0 0 18.993-11.652c7.95-4.931 15.908-9.847 23.875-14.75l3.337-2.054a5631.471 5631.471 0 0 1 19.413-11.883c10.592-5.771 10.592-5.771 20.062-12.938.11-2.62.153-5.216.154-7.838l.014-2.518c.013-2.807.02-5.614.025-8.42l.025-6.01c.026-6.6.042-13.197.056-19.796l.016-6.802c.022-9.429.04-18.857.052-28.286.016-13.533.049-27.066.106-40.6.039-9.503.058-19.007.063-28.511.004-5.682.016-11.364.049-17.046.03-5.345.036-10.688.024-16.033 0-1.964.008-3.928.026-5.892.022-2.677.014-5.352-.001-8.029l.042-2.368c-.057-3.855-.283-5.479-3.041-8.27l-2.61-1.58-2.348-1.505-2.425-1.414-2.725-1.598-2.876-1.671-5.985-3.508-2.939-1.72c-3.455-2.027-6.894-4.08-10.326-6.147l-1.763-1.06-3.635-2.188c-3.886-2.338-7.776-4.67-11.665-7.002-5.147-3.088-10.294-6.176-15.437-9.27-7.917-4.76-15.843-9.5-23.813-14.168a845.279 845.279 0 0 1-17.828-10.758c-5.42-3.338-10.887-6.597-16.35-9.864-3.026-1.81-6.049-3.625-9.072-5.44l-3.75-2.25-11.227-6.736c-1.68-1.008-3.36-2.016-5.041-3.022-4.49-2.691-8.974-5.393-13.447-8.113l-2.777-1.683a1514.873 1514.873 0 0 1-5.3-3.227l-2.404-1.454-2.121-1.292c-4.28-2.234-7.76 1.32-11.433 3.527z"></path><path fill="#e626e6" d="M208.99 73.854c.914 5.42 1.135 10.608 1.094 16.098l-.01 2.916c-.02 3.662-.05 7.324-.084 10.986l-.022 2.343c-.126 13.343-.282 26.687-.441 40.03-.062 5.156-.121 10.313-.181 15.47-.117 10.052-.236 20.105-.356 30.157-6.533.026-13.065.043-19.598.055a4122.9 4122.9 0 0 0-6.673.02c-3.19.013-6.38.018-9.569.023l-3.033.015h-2.79l-2.47.008c-1.867-.12-1.867-.12-2.867-1.12-.088-2.522-.115-5.015-.098-7.536l.004-2.282c.006-2.415.019-4.83.031-7.245l.014-4.9c.011-4.013.028-8.025.049-12.038a47697.774 47697.774 0 0 0-14.256 8.31 3752.078 3752.078 0 0 0-18.744 11.003c-7.933 4.684-15.957 9.195-24 13.687v25l9.44-.016c10.265-.016 20.53-.027 30.797-.036 6.227-.005 12.454-.012 18.681-.023 6.004-.01 12.008-.017 18.012-.02 2.297-.002 4.593-.005 6.889-.01 3.204-.007 6.408-.008 9.612-.008l2.908-.011c.868 0 1.736.003 2.63.004l2.3-.003c1.73.123 1.73.123 2.73 1.123.099 2.782.13 5.539.121 8.32l.003 2.676c.002 2.982-.004 5.964-.009 8.946v6.385c0 5.797-.005 11.594-.012 17.391-.006 6.052-.007 12.103-.008 18.154-.003 11.468-.011 22.935-.021 34.403a82426.83 82426.83 0 0 0-.022 39.155c-.01 26.857-.028 53.714-.05 80.57-3.282-.612-5.815-1.24-8.68-2.968l-2.04-1.217-2.155-1.315-2.274-1.363c-1.546-.928-3.09-1.86-4.632-2.793a964.772 964.772 0 0 0-6.036-3.621c-7.532-4.489-15.015-9.057-22.492-13.637a1600.18 1600.18 0 0 0-14.191-8.586 1726.278 1726.278 0 0 1-16.188-9.812 2163.02 2163.02 0 0 0-19.312-11.688c-7.01-4.196-14-8.423-20.965-12.695-4.392-2.693-8.794-5.37-13.203-8.035-1.05-.636-2.1-1.272-3.183-1.926-2.069-1.252-4.14-2.502-6.211-3.75l-2.845-1.723-2.54-1.533c-2.053-1.338-2.053-1.338-4.053-3.338-.24-2.1-.24-2.1-.227-4.725v-2.972l.031-3.217.01-3.287c.01-3.475.036-6.95.061-10.424.01-2.351.02-4.703.027-7.054.022-5.774.056-11.547.098-17.32 3.766-1.095 3.766-1.095 5.868-.247l1.933 1.238 2.187 1.373 2.325 1.51 4.902 3.09 2.46 1.566c3.202 2.023 6.445 3.97 9.7 5.907l3.652 2.187c2.103 1.258 4.206 2.514 6.31 3.77a9077.486 9077.486 0 0 1 10.17 6.08 830.13 830.13 0 0 1 16.055 9.9c4.17 2.63 8.336 5.18 12.688 7.5 8.746 4.754 17.214 10.004 25.75 15.125v-87l-22.496.035-14.068.014c-7.452.006-14.903.013-22.354.027-6.004.01-12.008.017-18.012.02-2.297.001-4.593.004-6.89.01-3.203.007-6.407.008-9.611.008l-2.908.011-2.63-.004-2.3.003c-1.731-.124-1.731-.124-2.731-1.124a268.565 268.565 0 0 1-.32-9.35l-.064-2.976c-.183-9.079-.289-18.159-.372-27.239-.057-6.104-.138-12.205-.28-18.307a960.17 960.17 0 0 1-.237-17.685 331.017 331.017 0 0 0-.132-6.737c-.489-17.105-.489-17.105 2.633-21.393 3.45-3.13 7.43-4.69 11.772-6.313a74.212 74.212 0 0 0 3.82-2.278l3.09-1.8 1.73-1.01c1.196-.699 2.393-1.397 3.59-2.094a2354.67 2354.67 0 0 0 29.589-17.503c10.615-6.391 21.298-12.667 31.972-18.96 9.755-5.753 19.502-11.519 29.209-17.355l7.362-4.416c1.868-1.121 3.734-2.245 5.599-3.37a3241.03 3241.03 0 0 1 9.101-5.464l2.87-1.738 2.665-1.59 2.36-1.419c2.043-1.003 2.043-1.003 5.043-1.003z"></path><path fill="#e626e6" d="M226.99 73.854c4.369 1.599 8.345 3.767 12.375 6.063l2.14 1.212c5.833 3.319 11.59 6.754 17.333 10.225 4.885 2.95 9.8 5.85 14.715 8.75l2.826 1.669c3.807 2.248 7.616 4.494 11.424 6.74a4196.15 4196.15 0 0 1 31.638 18.815c6.27 3.768 12.561 7.497 18.862 11.214 37.502 22.127 37.502 22.127 39.687 24.312.1 2.06.131 4.125.133 6.188l.004 3.804-.006 1.992c-.005 2.008 0 4.016.006 6.024l-.004 3.805-.003 3.52c-.13 2.667-.13 2.667-1.13 3.667a73.016 73.016 0 0 1-4.611.114h-2.973l-3.232-.016-3.292-.004c-3.485-.006-6.97-.018-10.454-.03-2.356-.006-4.712-.01-7.069-.015-5.79-.01-11.579-.027-17.369-.048l.025 2.763c.2 22.183.348 44.366.442 66.55.046 10.729.11 21.456.212 32.184.09 9.35.148 18.7.168 28.05.012 4.952.04 9.902.105 14.853.06 4.661.08 9.32.066 13.981.002 1.71.02 3.42.055 5.13.248 12.94.248 12.94-3.054 16.81-2.296 1.556-4.45 2.653-7.019 3.678l-2.588 1.624-2.068 1.236-2.384 1.427-2.46 1.463-2.606 1.557c-7.665 4.572-15.34 9.127-23.052 13.619a505.29 505.29 0 0 0-3.804 2.242c-4.816 2.832-4.816 2.832-7.038 2.832v-210h-47c-.022-15.237-.04-30.475-.052-45.713-.005-7.074-.012-14.149-.023-21.224-.011-6.82-.017-13.642-.02-20.463-.002-2.608-.005-5.217-.01-7.826-.007-3.64-.008-7.28-.008-10.92l-.011-3.304c0-.986.003-1.972.004-2.988l-.003-2.611c.123-1.95.123-1.95 1.123-2.95z"></path><path fill="#04bc62" d="M430.99 128.854h2c.908 2.722 1.13 4.32 1.146 7.12l.02 2.552c.004.925.006 1.851.009 2.805l.02 2.979c.02 3.31.033 6.619.046 9.929l.04 7.1c.041 7.783.072 15.567.098 23.351l.007 2.005a27884.406 27884.406 0 0 1 .13 48.077l.004 2.175c.026 11.633.083 23.266.152 34.899.07 11.941.111 23.882.122 35.823.007 6.706.028 13.41.083 20.116.05 6.306.063 12.61.047 18.916 0 2.317.015 4.634.044 6.95.037 3.159.026 6.314.002 9.473l.069 2.791c-.117 5.998-.117 5.998-2.743 8.683-5.105 3.46-5.105 3.46-8.557 2.87l-1.738-.614 1.715-.748c4.47-2.237 4.47-2.237 7.04-6.313.273-2.615.3-5.136.245-7.765l.033-3.02c.027-3.344-.003-6.684-.033-10.028.008-2.395.019-4.79.033-7.184.026-5.83.016-11.66-.01-17.49-.03-6.785-.014-13.57.005-20.354.032-12.098.03-24.197.003-36.296-.025-11.752-.033-23.504-.018-35.256l.003-2.195.014-10.904c.041-30.15.024-60.298-.03-90.447z"></path><path fill="#00b75c" d="M2.99 128.854h2l.008 3.787a76643.28 76643.28 0 0 0 .255 99.87l.006 2.2c.036 11.763.06 23.527.082 35.29.021 12.066.054 24.13.098 36.196.027 7.449.044 14.897.05 22.346.006 5.705.028 11.41.056 17.116.008 2.345.012 4.69.01 7.035-.001 3.192.015 6.383.037 9.574l-.015 2.839.029 2.583.005 2.234c.48 2.447 1.501 3.353 3.38 4.93l-7-2 1-244z"></path><path fill="#03b85f" d="M226.99 73.854c3.624 1.362 6.914 2.975 10.25 4.938l2.64 1.527c2.11 1.535 2.11 1.535 3.11 4.535-5.11-1.813-9.071-4.262-14-7v112h44v1h-47c-.022-15.107-.04-30.214-.052-45.321-.005-7.015-.012-14.029-.023-21.043-.011-6.762-.017-13.525-.02-20.288-.002-2.586-.005-5.173-.01-7.76-.007-3.608-.008-7.217-.008-10.826l-.011-3.276c0-.977.003-1.955.004-2.962l-.003-2.59c.123-1.934.123-1.934 1.123-2.934z"></path><path fill="#03b961" d="m57.99 161.854 4 1-1 100h101v1h-104v-102z"></path><path fill="#04b95f" d="m367.99 158.854 3.875.875 2.18.492c1.945.633 1.945.633 3.945 2.633.243 2.782.243 2.782.23 6.285l-.005 3.795-.037 3.983-.002 3.994c-.046 9.803-.046 9.803-1.186 10.943a72.25 72.25 0 0 1-4.58.146l-2.953.019-3.213.003-3.277.01c-2.292.005-4.585.007-6.877.007-3.519.002-7.037.02-10.555.04l-6.666.005-3.207.022-2.963-.009-2.615.004c-2.094-.247-2.094-.247-4.094-2.247 1-1 1-1 2.943-1.12l2.577.007h2.912l3.166.015 3.224.004c3.414.006 6.827.019 10.24.031l6.924.014c5.672.011 11.343.028 17.014.049.006-4.085-.053-8.166-.125-12.25l.008-3.512c.127-5.846.127-5.846-2.276-10.893-1.806-1.24-1.806-1.24-4.607-2.345v-1z"></path><path fill="#04ba62" d="m57.99 292.854 4 1v49l-4-1v-49z"></path><path fill="#01bc5e" d="m213.99 37.854 1 2h-2l-1 3c-3.074 2.377-6.475 4.265-9.812 6.25l-2.776 1.719-2.681 1.61-2.457 1.48c-2.606 1.078-3.683.931-6.274-.059 8.62-5.412 17.238-10.818 26-16z"></path><path fill="#09be67" d="m282.99 461.854 2 1c-3.524 3.754-7.021 6.525-11.437 9.25l-3.309 2.078c-3.2 1.645-5.698 2.308-9.254 2.672 3.623-3.886 8.101-6.427 12.563-9.25l2.654-1.718 2.537-1.61 2.323-1.481 1.923-.94z"></path><path fill="#23c876" d="m118.99 57.854 1 2-1.61.953c-4.463 2.671-4.463 2.671-8.327 6.11-2.66 2.499-5.496 3.62-8.844 5.008-2.239.887-2.239.887-4.312 2.109-1.907.82-1.907.82-4.907-.18l27-16z"></path><path fill="#02b95c" d="M136.99 387.854c3.364 1.267 6.37 2.711 9.426 4.602l2.412 1.484 2.475 1.54 2.533 1.562c2.054 1.267 4.105 2.538 6.154 3.812l-2 1c-6.5-2.212-12.522-5.889-18-10v-2l-3-1v-1z"></path><path fill="#03ba5a" d="M42.99 395.854c4.621 1.642 8.639 4.034 12.813 6.563l2.1 1.248a204.239 204.239 0 0 1 5.087 3.19v1c-6.613-.282-10.892-2.88-16-7-2.562-2.876-2.562-2.876-4-5z"></path><path fill="#04b559" d="m310.99 444.854 2 1-3 1-.875 1.875c-2.483 4.691-8.431 6.248-13.125 8.125-1.323.373-2.652.73-4 1 3.411-3.804 7.28-6.227 11.625-8.812l2.063-1.272c1.732-1.039 3.52-1.986 5.312-2.916z"></path><path fill="#01ba5b" d="M281.99 74.854c4.272 1.529 7.994 3.715 11.813 6.125l1.81 1.13c1.462.911 2.92 1.828 4.377 2.745l-2 1c-12.504-4.658-12.504-4.658-15.437-9.25l-.563-1.75z"></path><path fill="#23c677" d="m61.99 91.854 1 2c-4.14 4.446-7.912 7.13-14 8 1.364-4.092 3.349-4.615 7.063-6.687L59.4 93.28l2.59-1.426z"></path><path fill="#02ba5e" d="m339.99 426.854 2 1c-4.977 5.262-8.71 8.153-16 9 2.805-2.994 5.612-5.2 9.125-7.312l2.633-1.614 2.242-1.074z"></path><path fill="#09c675" d="M295.99 416.854v3l-3.25 1.75c-2.352 1.332-3.94 2.44-5.875 4.375-2.177 2.178-3.923 3.043-6.875 3.875l-3-1 19-12z"></path><path fill="#02b95e" d="M259.99 61.854c3.699 1.373 6.952 3.064 10.313 5.125l2.676 1.633 2.011 1.242c-1.676.672-1.676.672-4 1-2.543-1.11-2.543-1.11-5.187-2.75l-2.668-1.61c-2.145-1.64-2.145-1.64-3.145-4.64z"></path><path fill="#01ba5f" d="M321.99 98.854c4.776 1.642 8.794 4.266 13 7-2.507.924-3.6 1.17-6.105.11l-2.082-1.36-2.106-1.328c-1.707-1.422-1.707-1.422-2.707-4.422z"></path><path fill="#01ba59" d="M241.99 50.854c4.776 1.642 8.794 4.266 13 7-2.507.924-3.6 1.17-6.105.11l-2.082-1.36-2.106-1.328c-1.707-1.422-1.707-1.422-2.707-4.422z"></path><path fill="#0bc56e" d="M123.99 447.854c3.182-.465 5.254-.51 7.957 1.336a100.963 100.963 0 0 1 5.043 4.664l-1 2a1735.121 1735.121 0 0 1-6-3.437l-3.375-1.934-2.625-1.629v-1z"></path><path fill="#01b860" d="M73.99 301.854c4.988.475 8.07 1.893 12 5l1 3c-4.723-1.624-8.942-4.11-13-7v-1z"></path><path fill="#27c877" d="m82.99 146.854 2 1c-4.786 5.35-9.088 6.78-16 8 4.2-3.658 8.872-6.793 14-9z"></path><path fill="#0fbd64" d="M252.99 484.854c-9.225 5.556-9.225 5.556-15 6 4.043-4.468 8.982-8.006 15-6z"></path><path fill="#01b457" d="M86.99 422.854c3.699 1.373 6.952 3.064 10.313 5.125l2.676 1.633 2.011 1.242c-3 1-3 1-4.902.399-4.402-2.214-7.294-4.193-10.098-8.399z"></path><path fill="#01ba60" d="M108.99 400.854c5.978 1.115 8.946 2.186 13 7-3.65 0-5.1-1.044-8.187-2.937l-2.73-1.653-2.083-1.41v-1z"></path><path fill="#02b95b" d="M70.99 347.854c4.776 1.642 8.794 4.266 13 7l-2 1c-4.633-1.63-7.793-3.152-11-7v-1z"></path><path fill="#05b65e" d="M249.99 20.854c5.978 1.115 8.946 2.186 13 7-3.65 0-5.1-1.044-8.187-2.937l-2.73-1.653-2.083-1.41v-1z"></path><path fill="#0dc366" d="M398.99 393.854c-3.467 2.958-6.868 5.079-11 7 .188-1.812.188-1.812 1-4 3.373-2.623 5.757-3.363 10-3z"></path><path fill="#01b35c" d="m120.99 125.854 2 1a900.342 900.342 0 0 1-6.375 4.063l-1.828 1.181c-1.562.98-3.177 1.875-4.797 2.756l-2-1c2.802-3.112 5.064-4.622 9-6l2.188-1.187 1.812-.813z"></path><path fill="#01b659" d="m134.99 84.854 1 3c-4.021 2.969-7 4.524-12 5 2.192-2.357 4.44-4.02 7.188-5.687l2.168-1.324 1.644-.989z"></path><path fill="#0dc672" d="M386.99 401.854a674.89 674.89 0 0 1-5.375 3.563l-3.023 2.004-2.602 1.433-2-1c1.076-.988 2.161-1.965 3.25-2.937.604-.546 1.207-1.09 1.828-1.653 2.768-2.03 4.757-2.992 7.922-1.41z"></path><path fill="#07bb5e" d="M201.99 455.854c1.485.76 2.963 1.533 4.438 2.313l2.496 1.3c2.066 1.387 2.066 1.387 3.066 4.387-4.11-1.45-7.432-3.51-11-6l1-2z"></path><path fill="#10c879" d="m173.99 92.854 2 1c-6.564 5.801-6.564 5.801-11 7l-3-1a785.593 785.593 0 0 1 5.875-3.562l3.305-2.004 2.82-1.434z"></path><path fill="#02b658" d="m282.99 461.854 2 1c-3.49 4.005-5.65 5.627-11 6 2.624-2.915 5.718-4.885 9-7z"></path><path fill="#0bc974" d="m301.99 454.854-12 7-1-3a407.984 407.984 0 0 1 4.813-2.562l2.707-1.442c2.48-.996 2.48-.996 5.48.004z"></path><path fill="#04ba5e" d="M243.99 452.854a616.39 616.39 0 0 1-3.875 2.5l-2.18 1.407c-1.945 1.093-1.945 1.093-3.945 1.093.981-2.452 1.687-3.78 3.875-5.312 2.499-.809 3.655-.406 6.125.312z"></path><path fill="#0ebe65" d="M337.99 394.854c-3.797 2.826-6.185 4.567-11 4 6.543-5.337 6.543-5.337 11-4z"></path><path fill="#06b65c" d="M103.99 319.854c4.167.474 6.93 1.047 10 4v2c-3.59-1.333-6.795-2.894-10-5v-1z"></path><path fill="#04b35e" d="M36.99 106.854h5c-2.166 2.309-4.392 4.053-7.062 5.75l-2.098 1.36-1.84.89-2-1 1.496-1.023 1.942-1.352 1.933-1.336c1.767-1.21 1.767-1.21 2.63-3.289z"></path><path fill="#1ec373" d="m167.99 28.854 1 2c-1.75 2-1.75 2-4 4h-4v-2l7-4z"></path><path fill="#02b860" d="M69.99 376.854c4.752.432 6.92 1.328 10 5l-2 1c-1.945-.96-1.945-.96-4.125-2.375l-2.195-1.398-1.68-1.227v-1z"></path><path fill="#02b95e" d="M33.99 354.854c4.752.432 6.92 1.328 10 5l-2 1c-1.945-.96-1.945-.96-4.125-2.375l-2.195-1.398-1.68-1.227v-1z"></path><path fill="#01b75e" d="M148.99 161.854c-.5 1.875-.5 1.875-2 4-2.652.985-5.205 1.46-8 2 2.645-2.922 5.894-6 10-6z"></path><path fill="#01b85d" d="M53.99 134.854c-.5 1.875-.5 1.875-2 4-2.652.985-5.205 1.46-8 2 2.645-2.922 5.894-6 10-6z"></path><path fill="#04b65c" d="M276.99 104.854c7.631 1.477 7.631 1.477 9.5 4.125l.5 1.875c-3.59-1.333-6.795-2.894-10-5v-1z"></path><path fill="#02b558" d="M227.99 41.854c1.483.785 2.961 1.578 4.438 2.375l2.496 1.336c2.066 1.29 2.066 1.29 3.066 3.29-3.374-.548-5.082-1.056-8-3v-2h-2v-2z"></path><path fill="#00b55a" d="M182.99 415.854c3.594 1.335 6.755 2.96 10 5l-2 1c-3.562-1.25-3.562-1.25-7-3l-1-3z"></path><path fill="#04b55e" d="M73.99 155.854a350.397 350.397 0 0 1-3.875 2.563l-2.18 1.441-1.945.996-2-1c5.6-6.2 5.6-6.2 10-4z"></path><path fill="#05b55e" d="M105.99 136.854a350.332 350.332 0 0 1-3.875 2.563l-2.18 1.441-1.945.996-2-1c5.6-6.2 5.6-6.2 10-4z"></path><path fill="#02b35c" d="M139.99 116.854a545.727 545.727 0 0 1-4.875 3.063l-2.742 1.722-2.383 1.215-2-1 3-1 1-3c5.403-2.299 5.403-2.299 8-1z"></path><path fill="#02b454" d="M205.99 43.854c-1 3-1 3-4.437 4.75l-3.563 1.25-2-1c1.288-.839 2.58-1.67 3.875-2.5l2.18-1.406c1.945-1.094 1.945-1.094 3.945-1.094z"></path><path fill="#03c976" d="m265.99 476.854-11 6c1.015-3.045 1.582-4.03 4-6 3.015-1.13 3.832-1.056 7 0z"></path><path fill="#01b458" d="M361.99 414.854c-.5 1.875-.5 1.875-2 4-2.652.985-5.205 1.46-8 2 2.645-2.922 5.894-6 10-6z"></path><path fill="#0fc274" d="M78.99 380.854c3.46 1.25 6.147 2.676 9 5l-2 1c-3.062-1.25-3.062-1.25-6-3l-1-3z"></path><path fill="#17c176" d="M370.99 92.854c5.076-.615 7.83 1.384 12 4-3.641 1.214-4.331.668-7.687-.937l-2.45-1.153-1.863-.91v-1z"></path><path fill="#09b862" d="M360.99 85.854c2.313.188 2.313.188 5 1 1.813 2.563 1.813 2.563 3 5-2.972-1.124-5.334-2.223-8-4v-2z"></path><path fill="#01b558" d="M177.99 478.854c3.46 1.25 6.147 2.676 9 5-3.375-.25-3.375-.25-7-1-1.437-2.062-1.437-2.062-2-4z"></path><path fill="#14bf6a" d="m315.99 441.854 2 1c-4.625 4.875-4.625 4.875-8 6v-2a158.83 158.83 0 0 1 6-5z"></path><path fill="#00b758" d="M346.99 113.854c3.594 1.335 6.755 2.96 10 5-2 1-2 1-5 .313-3-1.313-3-1.313-4.375-3.438l-.625-1.875z"></path><path fill="#0cbf65" d="M274.99 35.854c4.39.51 7.337 1.522 11 4l-2 1c-2.164-.777-2.164-.777-4.625-1.937l-2.476-1.153-1.899-.91v-1z"></path><path fill="#04b455" d="m401.99 388.854 2 1c-1.75 2.063-1.75 2.063-4 4-2.25-.25-2.25-.25-4-1l6-4z"></path><path fill="#00b357" d="M376.99 131.854c3.594 1.335 6.755 2.96 10 5l-2 1c-2.625-.937-2.625-.937-5-2v-2l-3-1v-1z"></path><path fill="#01b656" d="M95.99 109.854c-1 3-1 3-4 5-2.187-.375-2.187-.375-4-1 5.75-4 5.75-4 8-4z"></path><path fill="#02bc5e" d="m196.99 489.854 7 4c-1.812.625-1.812.625-4 1l-3-2v-3z"></path><path fill="#03c877" d="m330.99 436.854-8 4 1-4c3.01-.934 3.867-1.044 7 0z"></path><path fill="#13ba67" d="M311.99 406.854c2.688-.312 2.688-.312 5 0-2.353 2.725-4.625 3.814-8 5 1.188-2.5 1.188-2.5 3-5z"></path><path fill="#02b354" d="M287.99 391.854c-1 3-1 3-4 5-2.187-.375-2.187-.375-4-1 5.75-4 5.75-4 8-4z"></path><path fill="#01b557" d="m417.99 378.854 2 1c-1.75 2.063-1.75 2.063-4 4-2.25-.25-2.25-.25-4-1l6-4z"></path><path fill="#07b35a" d="M63.99 295.854c2.875.25 2.875.25 6 1 1.375 2.063 1.375 2.063 2 4-3.375-1.186-5.647-2.275-8-5z"></path><path fill="#01b55c" d="M301.99 51.854c2.875.25 2.875.25 6 1 1.375 2.063 1.375 2.063 2 4-3.375-1.186-5.647-2.275-8-5z"></path></svg>