<?xml version="1.0" encoding="UTF-8" standalone="no"?>
<!-- Created with Inkscape (http://www.inkscape.org/) -->

<svg
   version="1.1"
   id="svg1"
   width="434.32611"
   height="503.78931"
   viewBox="0 0 434.32611 503.78931"
   xmlns="http://www.w3.org/2000/svg"
   xmlns:svg="http://www.w3.org/2000/svg">
  <defs
     id="defs1" />
  <g
     id="g1"
     transform="translate(-1.2746459,-0.4212383)">
    <g
       id="g9"
       transform="translate(205.74074,-16.093885)">
      <path
         style="fill:#e525e5"
         d="M 9.1078991,519.16027 C 1.7427991,515.84879 -200.10462,391.86192 -201.90192,389.5453 c -1.45137,-1.87074 -2.37359,-61.45601 -2.52742,-163.29991 -0.11641,-77.06487 -0.064,-79.42481 1.82095,-82 1.06745,-1.45833 6.63472,-5.14026 12.37172,-8.18207 8.87433,-4.70525 63.11501,-36.929827 174.930899,-103.927074 13.4750001,-8.073878 25.31601,-14.983175 26.31335,-15.353993 2.42947,-0.903298 1.74424,-1.283622 53.68665,29.797544 25.025,14.974395 61.700001,36.794018 81.500001,48.488051 19.8,11.694032 41.10195,24.599832 47.33767,28.679562 6.23571,4.07974 16.15917,9.83577 22.05213,12.7912 5.89295,2.95543 11.366,6.15828 12.16233,7.11745 1.23946,1.49291 1.51984,18.74293 1.94787,119.84088 0.275,64.95332 0.20008,119.60293 -0.16649,121.44359 -0.90958,4.5673 -3.81916,7.37943 -11.59672,11.20831 -3.62697,1.78555 -26.2015,15.39899 -50.16564,30.25209 -23.96413,14.85311 -65.62115,40.49982 -92.571151,56.99271 -26.95,16.49288 -50.87845,31.27072 -53.17434,32.83963 -6.5997,4.50998 -8.45558,4.93068 -12.9119899,2.927 z m 8.8859899,-39.7131 c 1.76019,-0.90569 19.17534,-11.53716 38.70034,-23.6255 48.626341,-30.10558 115.798701,-71.38654 125.500001,-77.12636 4.4,-2.60329 9.32925,-5.80615 10.95389,-7.11748 l 2.95389,-2.38423 0.35059,-100.79986 c 0.28347,-81.50241 0.10085,-101.26298 -0.95389,-103.21896 -0.84809,-1.57274 -17.04834,-11.8266 -46.30448,-29.30816 -24.75,-14.78899 -65.134151,-39.012887 -89.742561,-53.830898 -24.60841,-14.81801 -45.75841,-26.940725 -47,-26.939365 -1.24159,0.0014 -42.98244,24.431007 -92.75744,54.288103 l -90.499999,54.28563 -0.62482,32.46189 c -0.34364,17.85405 -0.70411,63.06448 -0.80103,100.46763 -0.153,59.04587 0.0253,68.48807 1.35342,71.66667 1.64839,3.94516 5.2196,6.94763 11.26442,9.47048 3.80235,1.58693 142.890729,86.5686 159.66744911,97.55528 9.55428999,6.25688 12.52038989,6.94386 17.94021989,4.15513 z m -51.94165,-52.17036 c -18.07191,-10.89939 -45.45801,-27.47449 -60.85801,-36.83356 -15.399999,-9.35907 -32.724999,-19.86008 -38.499999,-23.33558 -15.63087,-9.40692 -14,-5.48483 -14,-33.66878 v -24.34501 h 2.70501 c 1.54223,0 6.37814,2.30648 11.25,5.36569 15.97782,10.03301 55.498579,33.92015 68.325939,41.29757 7.02952,4.04289 14.55807,8.47258 16.73012,9.84373 2.17205,1.37116 4.18313,2.49301 4.46906,2.49301 0.28593,0 0.51987,-19.575 0.51987,-43.5 v -43.5 h -51.44098 c -28.292539,0 -51.646939,-0.3375 -51.898649,-0.75 -0.25172,-0.4125 -0.78092,-23.025 -1.176,-50.25 l -0.71833,-49.5 2.21563,-2.78314 c 1.2186,-1.53073 4.46321,-3.92208 7.21025,-5.31411 9.14386,-4.63355 61.745269,-35.37158 89.308079,-52.18785 4.95,-3.02004 14.175,-8.53003 20.5,-12.24443 6.325,-3.71441 15.75189,-9.277293 20.9486501,-12.361967 5.19676,-3.084674 9.96956,-5.608498 10.60622,-5.608498 1.94908,0 2.25683,12.913945 1.58476,66.499995 l -0.63963,51 -21.0000001,0.28298 c -11.55,0.15564 -22.0125,0.0346 -23.25,-0.26905 -2.22386,-0.54562 -2.25,-0.75026 -2.25,-17.61632 0,-9.65838 -0.38953,-16.91961 -0.89754,-16.73094 -0.49364,0.18333 -13.30466,7.53333 -28.46893,16.33333 l -27.571389,16 -0.0311,12.741 -0.0311,12.741 51.749999,0.259 51.7500001,0.259 0.25448,107.75 0.25449,107.75 h -2.39648 c -1.34262999,0 -16.8456501,-8.71448 -35.2544801,-19.81707 z M 67.694229,313.09388 v -105 h -23.5 -23.5 v -58.33333 c 0,-32.08334 0.27981,-58.613139 0.62179,-58.955126 1.22394,-1.223935 5.48428,1.225813 101.378211,58.293716 23.375,13.91081 44.19977,26.3638 46.27728,27.67332 l 3.77727,2.38095 -0.27727,14.22023 -0.27728,14.22024 -25.35803,0.2674 -25.35802,0.2674 0.57221,3.2326 c 0.31472,1.77793 0.65725,41.67607 0.76117,88.66253 l 0.18896,85.42993 -2.40314,1.89783 c -2.99536,2.36551 -51.126321,30.73344 -52.153151,30.73857 -0.4125,0.002 -0.75,-47.24626 -0.75,-104.99626 z"
         id="path9" />
    </g>
  </g>
</svg>
